<?xml version="1.0" encoding="utf-8"?>
<!-- Generator: Adobe Illustrator 21.1.0, SVG Export Plug-In . SVG Version: 6.00 Build 0)  -->
<svg version="1.1" id="Layer_1" xmlns="http://www.w3.org/2000/svg" xmlns:xlink="http://www.w3.org/1999/xlink" x="0px" y="0px"
	 viewBox="0 0 30 32" style="enable-background:new 0 0 30 32;" xml:space="preserve">
<style type="text/css">
	.st0{fill:#FFFFFF;}
</style>
<g id="_x35__16_">
	<g>
		<path class="st0" d="M6,18h2v-2H6V18z M6,26h2v-2H6V26z M26,2h-4V1c0-0.6-0.4-1-1-1s-1,0.4-1,1v1H10V1c0-0.6-0.4-1-1-1S8,0.4,8,1
			v1H4C1.8,2,0,3.8,0,6v22c0,2.2,1.8,4,4,4h22c2.2,0,4-1.8,4-4V6C30,3.8,28.2,2,26,2z M10,26c0,1.1-0.9,2-2,2H6c-1.1,0-2-0.9-2-2v-2
			c0-1.1,0.9-2,2-2h2c1.1,0,2,0.9,2,2V26z M10,18c0,1.1-0.9,2-2,2H6c-1.1,0-2-0.9-2-2v-2c0-1.1,0.9-2,2-2h2c1.1,0,2,0.9,2,2V18z
			 M18,26c0,1.1-0.9,2-2,2h-2c-1.1,0-2-0.9-2-2v-2c0-1.1,0.9-2,2-2h2c1.1,0,2,0.9,2,2V26z M18,18c0,1.1-0.9,2-2,2h-2
			c-1.1,0-2-0.9-2-2v-2c0-1.1,0.9-2,2-2h2c1.1,0,2,0.9,2,2V18z M26,26c0,1.1-0.9,2-2,2h-2c-1.1,0-2-0.9-2-2v-2c0-1.1,0.9-2,2-2h2
			c1.1,0,2,0.9,2,2V26z M26,18c0,1.1-0.9,2-2,2h-2c-1.1,0-2-0.9-2-2v-2c0-1.1,0.9-2,2-2h2c1.1,0,2,0.9,2,2V18z M28,8H2V6
			c0-1.1,0.9-2,2-2h4v1c0,0.6,0.4,1,1,1s1-0.4,1-1V4h10v1c0,0.6,0.4,1,1,1s1-0.4,1-1V4h4c1.1,0,2,0.9,2,2V8z M22,18h2v-2h-2V18z
			 M14,26h2v-2h-2V26z M22,26h2v-2h-2V26z M14,18h2v-2h-2V18z"/>
	</g>
</g>
</svg>
