<?xml version="1.0" encoding="utf-8"?>
<!-- Generator: Adobe Illustrator 21.1.0, SVG Export Plug-In . SVG Version: 6.00 Build 0)  -->
<svg version="1.1" id="Layer_1" xmlns="http://www.w3.org/2000/svg" xmlns:xlink="http://www.w3.org/1999/xlink" x="0px" y="0px"
	 viewBox="0 0 372.1 474.4" style="enable-background:new 0 0 372.1 474.4;" xml:space="preserve">
<style type="text/css">
	.st0{fill:#FFFFFF;}
</style>
<path class="st0" d="M168.9,218.5c7.3-4.3,13.7-8.2,20-12c33.7-20.3,67.3-40.6,101-60.7c16.9-10.1,37.4-2.1,42.5,16.3
	c0.9,3.2,1,6.5,1.5,10.2c15.7-1.8,27.9,3.3,33.8,18.8c4.5,11.7,0.6,22.3-11.6,33.7c10.8,6.4,16.8,15.5,15.9,28.3
	c-0.9,12.7-9.2,20-20.1,25.8c1.4,1,2.2,1.5,3,2c18.3,12.2,18.1,37.2-0.7,48.6c-29.3,17.9-58.7,35.4-88.1,53.1
	c-12.6,7.6-25.1,15.1-37.7,22.7c-67.1,40.4-152.7-1.2-162.5-79.1c-2.6-20.9,0.7-40.8,9.9-59.7c17.6-36.2,35.4-72.4,53.1-108.5
	c5.7-11.7,17-18.1,29.7-17c12,1,22.5,9.8,25.8,21.9c1.9,6.8,1.2,13.5-1.5,20c-4.3,10.3-8.4,20.6-12.6,31
	C169.8,215.1,169.5,216.3,168.9,218.5z M172.4,403.3c15.8,0.1,31.6-3.9,45.3-12.1c42.3-25.3,84.5-50.8,126.7-76.2
	c6.4-3.8,8.2-10.1,4.8-15.7c-3.3-5.3-9.5-6.4-15.8-2.8c-7.6,4.5-15.1,9.1-22.7,13.6c-10.7,6.4-21.3,13-32.1,19.3
	c-7.5,4.4-15.8,1.2-17.9-6.7c-1.4-5.2,1-10.2,6.8-13.6c26.7-16.1,53.4-32,79.9-48.3c2.9-1.8,5.5-4.9,6.7-8c1.6-4.2-0.2-8.2-4-10.9
	c-4.1-3-8.3-2.6-12.6-0.1c-18.9,11.5-37.9,22.8-56.9,34.3c-6.3,3.8-12.5,7.7-18.8,11.3c-4.2,2.4-8.6,2.4-12.7-0.4
	c-4-2.7-5.4-6.7-4.7-11.3c0.6-4.6,3.9-7.1,7.6-9.3c30.7-18.4,61.4-36.9,91.9-55.5c2.8-1.7,5.7-4.3,7.1-7.2c1.9-4.2,0.7-8.6-3.1-11.7
	c-3.9-3.2-8.3-3.4-12.6-0.8c-10.8,6.3-21.4,12.9-32.1,19.3c-21.1,12.7-42.2,25.5-63.3,38.1c-6.3,3.8-13.2,2.1-16.5-3.5
	c-3.5-5.9-1.7-12.3,4.6-16.3c4.8-3,9.7-5.9,14.5-8.8c22.2-13.4,44.5-26.8,66.7-40.2c7.3-4.4,9-11.6,4.2-17.1c-3.9-4.6-9.1-5-15.7-1
	c-43.8,26.3-87.5,52.8-131.4,78.9c-3.2,1.9-7.6,3.2-11.2,2.7c-7.9-1.1-11.6-9.4-8.4-17.5c6.6-16.5,13.3-33,20-49.5
	c2.8-6.9,0.6-13.6-5.6-16.5c-6.2-2.9-12.9-0.4-16.3,6.3c-1.7,3.3-3.2,6.6-4.8,9.9c-15.9,32.4-31.6,64.9-47.7,97.2
	C62.4,332.8,105.5,402.9,172.4,403.3z"/>
<path class="st0" d="M72.9,380.1c-20.4-7.2-37-18.7-49.9-35.3C6.4,323.3-0.8,299,0.1,272c1.3-38.8,2.1-77.6,3.1-116.4
	c0.4-13.5,8.6-24.8,21-28.6c19.1-5.8,37.8,8,38.5,28.3c0.4,11.3,0.9,22.6,1.3,34c0,0.9,0.2,1.8,0.5,4.3c1.8-2.5,2.8-3.9,3.8-5.3
	c25.3-36.9,50.6-73.9,76-110.8c11.9-17.2,35.1-17.9,47-1.5c1.5,2.1,2.7,4.6,4.2,7.2c13.4-8.4,26.6-8.8,38.5,2.8
	c8.9,8.7,9.8,19.7,3.7,35.5c2.4,0.5,4.8,0.8,7.1,1.5c10.3,3,16.8,9.8,19.7,20c0.4,1.4-0.4,4.1-1.5,4.9c-5.6,3.8-11.5,7.1-18.4,11.2
	c1.2-2.2,1.9-3.2,2.4-4.4c2.2-5,0.5-10.7-4-13.6c-4.4-2.8-10.6-2-14,2.3c-3.3,4.2-6.1,8.7-9.2,13.1c-5.9,8.5-11.6,17.1-17.6,25.5
	c-2.2,3-5.1,5.4-7.7,8.1c-0.4-0.3-0.8-0.5-1.2-0.8c0.4-1.3,0.8-2.5,1.3-3.8c3.3-9.1,3.9-18.3,0.6-27.4c-1.2-3.4-0.7-5.8,1.3-8.7
	c8.5-12.1,16.8-24.4,25.2-36.6c2.5-3.7,3.5-7.6,1.6-11.8c-3.6-7.9-13.7-8.4-19-0.8c-7.4,10.5-14.5,21.1-21.8,31.7
	c-0.9,1.4-1.9,2.7-2.6,3.5c-7.7-2.5-15-5-22.7-7.5c5.7-8.4,11.7-17,17.6-25.6c1.1-1.6,2.4-3.3,3.2-5c2.5-4.9,0.9-10.6-3.6-13.7
	c-4.5-3-10.4-2.3-14,1.9c-1.3,1.5-2.4,3.2-3.5,4.9c-28.5,41.6-57.1,83.2-85.6,124.9c-3.5,5.1-7.7,7.7-13.9,6.7
	c-5.9-1-9.7-5.7-10.1-13.1c-0.8-17.3-1.6-34.6-2.2-51.9c-0.3-8.2-5-13.5-12.2-13.5c-7.2,0-11.8,5.3-12.1,13.6
	c-1.1,39.6-2.4,79.3-3.1,118.9c-0.6,32.4,12.9,57.8,39.1,76.8c2.3,1.6,4.1,4.2,5.5,6.7C65.9,365.9,69.1,372.6,72.9,380.1z"/>
<path class="st0" d="M103.9,0C116,0,128,2.8,138.8,8.4c4.5,2.3,9.8,6.4,6.7,12.1c-2.1,3.8-6.2,4.4-11.3,1.6
	C96.7,1.2,52.7,22,45.4,63.9c-0.6,3.6-0.5,7.3-0.6,10.9c0,6.1-2.4,9.6-6.9,9.7c-4.4,0.2-7-3.2-7.4-9.3C28.7,44.7,49.2,14.5,79.3,4.1
	C87.2,1.3,95.5,0,103.9,0z"/>
<path class="st0" d="M289.2,474.4c-13.4-0.2-25.7-3.7-37.1-10.3c-5.1-2.9-6.7-7.1-4.4-11c2.2-3.7,6.2-4.1,11.4-1.3
	c37.3,20.8,81.4-0.2,88.6-42.3c0.7-4.1,0.4-8.3,0.5-12.4c0.1-4.7,3-8,7.1-8c3.9,0,6.5,2.9,6.9,7.6c3.3,35.1-23.7,69.7-59.2,76
	C298.5,473.6,293.8,473.9,289.2,474.4z"/>
<path class="st0" d="M338.2,399c-1.2,39.1-44.1,62.6-76.7,42.7c-4.4-2.7-5.9-6.7-3.7-10.4c2.1-3.6,6-4.3,10.5-2
	c0.3,0.2,0.6,0.4,0.9,0.5c25.7,13.8,54.9-3.7,55.1-33c0-6,2.3-9,6.9-9c4.7-0.1,7,2.8,7.1,8.8C338.2,397.6,338.2,398.6,338.2,399z"/>
<path class="st0" d="M54.8,75.4c1.6-39.6,42.8-62.7,75.9-43.8c2,1.2,4.6,3.1,4.9,5.1c0.4,2.3-0.5,6.3-2.2,7.3
	c-2.2,1.3-6.2,1.4-8.6,0.2c-9.1-4.7-18.4-6.6-28.5-3.9C79.7,44.9,68.9,59.1,69,77c0,4.5-1,8-6,8.9c-4,0.7-7.3-1.7-7.9-5.8
	C54.8,78.1,54.9,76.1,54.8,75.4z"/>
</svg>
