<?xml version="1.0" encoding="utf-8"?>
<!-- Generator: Adobe Illustrator 21.1.0, SVG Export Plug-In . SVG Version: 6.00 Build 0)  -->
<svg version="1.1" id="Layer_1" xmlns="http://www.w3.org/2000/svg" xmlns:xlink="http://www.w3.org/1999/xlink" x="0px" y="0px"
	 viewBox="0 0 32 32" style="enable-background:new 0 0 32 32;" xml:space="preserve">
<style type="text/css">
	.st0{fill:#FFFFFF;}
</style>
<g id="_x37__16_">
	<g>
		<path class="st0" d="M16,0C7.2,0,0,7.2,0,16s7.2,16,16,16s16-7.2,16-16C32,7.1,24.8,0,16,0z M8.3,6.9l1.4,1.4L8.3,9.7L6.9,8.3
			L8.3,6.9z M8.1,24.2l-1.4-1.4l1.4-1.4l1.4,1.4L8.1,24.2z M17,28h-2v-2h2V28z M17,16c0,0.6-0.4,1-1,1H7c-0.6,0-1-0.4-1-1s0.4-1,1-1
			h8V5c0-0.6,0.4-1,1-1s1,0.4,1,1V16z M23.2,24.2l-1.4-1.4l1.4-1.4l1.4,1.4L23.2,24.2z M23.5,9.6l-1.4-1.4l1.4-1.4l1.4,1.4L23.5,9.6
			z M26,17v-2h2v2H26z"/>
	</g>
</g>
</svg>
